<svg width="64" height="64" xmlns="http://www.w3.org/2000/svg" xmlns:xlink="http://www.w3.org/1999/xlink">
 <title/>
 <desc/>
 <defs>
  <path id="path-1" d="m2,32c0,-16.56854 13.43146,-30 30,-30c16.56854,0 30,13.43146 30,30c0,16.56854 -13.43146,30 -30,30c-16.56854,0 -30,-13.43146 -30,-30z"/>
 </defs>
 <g>
  <title>background</title>
  <rect fill="none" id="canvas_background" height="66" width="66" y="-1" x="-1"/>
 </g>
 <g>
  <title>Layer 1</title>
  <mask id="mask-2">
   <use id="svg_1" xlink:href="#path-1"/>
  </mask>
  <path stroke="null" fill="#ffffff" id="svg_2" d="m26.245507,25.717655c-2.131951,0 -3.815064,1.824899 -3.815064,4.051281c0,2.226381 1.720527,4.051281 3.815064,4.051281c2.131951,0 3.815064,-1.824899 3.815064,-4.051281c0.037393,-2.226381 -1.683113,-4.051281 -3.815064,-4.051281zm13.651929,0c-2.131951,0 -3.815064,1.824899 -3.815064,4.051281c0,2.226381 1.720527,4.051281 3.815064,4.051281c2.131951,0 3.815064,-1.824899 3.815064,-4.051281c0,-2.226381 -1.683113,-4.051281 -3.815064,-4.051281z"/>
  <path stroke="null" fill="#ffffff" id="svg_3" d="m54.195127,1.149426l-43.239948,0c-3.646365,0 -6.61507,2.86812 -6.61507,6.422094l0,42.148889c0,3.553974 2.968705,6.422094 6.61507,6.422094l36.592617,0l-1.710242,-5.767415l4.130386,3.70985l3.904506,3.491624l6.937751,5.923291l0,-55.928334c0,-3.553974 -2.968705,-6.422094 -6.61507,-6.422094zm-12.45568,40.714829c0,0 -1.161681,-1.340534 -2.129742,-2.525192c4.227205,-1.153483 5.840628,-3.70985 5.840628,-3.70985c-1.323021,0.841731 -2.581485,1.43406 -3.710886,1.839338c-1.613441,0.654679 -3.162325,1.091132 -4.678948,1.340534c-3.097803,0.561154 -5.937429,0.405278 -8.357573,-0.031175c-1.839322,-0.342927 -3.420484,-0.841731 -4.743487,-1.340534c-0.742181,-0.280577 -1.548902,-0.623504 -2.355622,-1.059957c-0.096801,-0.06235 -0.193601,-0.093526 -0.29042,-0.155876c-0.064522,-0.031175 -0.096801,-0.06235 -0.129061,-0.093526c-0.58084,-0.311752 -0.903521,-0.529979 -0.903521,-0.529979c0,0 1.548883,2.494017 5.647009,3.678675c-0.968061,1.184658 -2.162003,2.587543 -2.162003,2.587543c-7.131371,-0.218226 -9.841935,-4.738633 -9.841935,-4.738633c0,-10.038419 4.646687,-18.17515 4.646687,-18.17515c4.646687,-3.366923 9.067475,-3.273397 9.067475,-3.273397l0.322699,0.374103c-5.808349,1.621111 -8.486653,4.083953 -8.486653,4.083953c0,0 0.709902,-0.374103 1.903843,-0.904081c3.452745,-1.465235 6.195588,-1.870513 7.32499,-1.964038c0.193601,-0.031175 0.354942,-0.06235 0.548561,-0.06235c1.968383,-0.249402 4.194926,-0.311752 6.518251,-0.06235c3.065524,0.342927 6.356929,1.215833 9.712855,2.992821c0,0 -2.549205,-2.338141 -8.034874,-3.959252l0.451761,-0.498803c0,0 4.420788,-0.093526 9.067475,3.273397c0,0 4.646687,8.136731 4.646687,18.17515c0,0 -2.742843,4.520406 -9.874196,4.738633l0,0z"/>
 </g>
</svg>