<svg width="59.99999999999999" height="59.99999999999999" xmlns="http://www.w3.org/2000/svg" xmlns:xlink="http://www.w3.org/1999/xlink">
 <title/>
 <desc/>
 <defs>
  <path id="path-1" d="m0,30c0,-16.56854 13.43146,-30 30,-30c16.56854,0 30,13.43146 30,30c0,16.56854 -13.43146,30 -30,30c-16.56854,0 -30,-13.43146 -30,-30z"/>
 </defs>
 <g>
  <title>background</title>
  <rect fill="none" id="canvas_background" height="402" width="582" y="-1" x="-1"/>
 </g>
 <g>
  <title>Layer 1</title>
  <mask id="mask-2">
   <use id="svg_1" xlink:href="#path-1"/>
  </mask>
  <path fill="#ffffff" id="svg_2" d="m27.79262,28c-1.00176,0 -1.79262,0.9009 -1.79262,2c0,1.0991 0.80844,2 1.79262,2c1.00176,0 1.79262,-0.9009 1.79262,-2c0.01757,-1.0991 -0.79086,-2 -1.79262,-2zm6.41476,0c-1.00176,0 -1.79262,0.9009 -1.79262,2c0,1.0991 0.80844,2 1.79262,2c1.00176,0 1.79262,-0.9009 1.79262,-2c0,-1.0991 -0.79086,-2 -1.79262,-2z"/>
  <path fill="#ffffff" id="svg_3" d="m42.36857,13l-23.73714,0c-2.00172,0 -3.63143,1.61 -3.63143,3.605l0,23.66c0,1.995 1.62971,3.605 3.63143,3.605l20.088,0l-0.93886,-3.2375l2.26743,2.0825l2.14343,1.96l3.80857,3.325l0,-31.395c0,-1.995 -1.62971,-3.605 -3.63143,-3.605zm-6.83771,22.855c0,0 -0.63772,-0.7525 -1.16915,-1.4175c2.32058,-0.6475 3.20629,-2.0825 3.20629,-2.0825c-0.72629,0.4725 -1.41714,0.805 -2.03714,1.0325c-0.88572,0.3675 -1.736,0.6125 -2.56857,0.7525c-1.70058,0.315 -3.25943,0.2275 -4.588,-0.0175c-1.00972,-0.1925 -1.87772,-0.4725 -2.604,-0.7525c-0.40743,-0.1575 -0.85029,-0.35 -1.29315,-0.595c-0.05314,-0.035 -0.10628,-0.0525 -0.15943,-0.0875c-0.03542,-0.0175 -0.05314,-0.035 -0.07085,-0.0525c-0.31886,-0.175 -0.496,-0.2975 -0.496,-0.2975c0,0 0.85028,1.4 3.1,2.065c-0.53143,0.665 -1.18686,1.4525 -1.18686,1.4525c-3.91486,-0.1225 -5.40286,-2.66 -5.40286,-2.66c0,-5.635 2.55086,-10.2025 2.55086,-10.2025c2.55086,-1.89 4.97771,-1.8375 4.97771,-1.8375l0.17715,0.21c-3.18857,0.91 -4.65886,2.2925 -4.65886,2.2925c0,0 0.38971,-0.21 1.04514,-0.5075c1.89543,-0.8225 3.40115,-1.05 4.02115,-1.1025c0.10628,-0.0175 0.19485,-0.035 0.30114,-0.035c1.08057,-0.14 2.30286,-0.175 3.57828,-0.035c1.68286,0.1925 3.48972,0.6825 5.332,1.68c0,0 -1.39942,-1.3125 -4.41085,-2.2225l0.248,-0.28c0,0 2.42685,-0.0525 4.97771,1.8375c0,0 2.55086,4.5675 2.55086,10.2025c0,0 -1.50572,2.5375 -5.42057,2.66l0,0z"/>
 </g>
</svg>