<svg width="158.52" height="155.031" xmlns="http://www.w3.org/2000/svg">

 <g>
  <title>background</title>
  <rect fill="none" id="canvas_background" height="402" width="582" y="-1" x="-1"/>
 </g>
 <g>
  <title>Layer 1</title>
  <path id="svg_2" fill="#7289DA" d="m147.575,42.264c-2.21,-23.192 -19.723,-30.928 -33.507,-31.323c-18.763,-0.537 -47.498,-1.239 -71.84,-1.534c-19.163,-0.233 -34.667,12.993 -34.667,33.746c0,28.018 -1.6,48.268 -1.6,66.665c0,21.884 11.304,37.883 37.493,39.185c13.735,0.683 52.834,3.679 74.82,-0.062c29.169,-4.963 30.951,-26.473 31.396,-38.248c0.736,-19.498 0.618,-39.956 -2.095,-68.429zm-39.96,78.505c0,0 -3.729,-3.454 -6.836,-7.389c13.568,-3.832 18.746,-12.325 18.746,-12.325c-4.246,2.796 -8.286,3.765 -11.911,5.111c-5.179,2.175 -10.15,2.625 -15.018,3.454c-4.806,0.901 -9.415,1.241 -13.775,1.193c-4.36,0.048 -8.969,-0.292 -13.775,-1.193c-4.868,-0.828 -9.839,-1.279 -15.018,-3.454c-3.625,-1.346 -7.664,-3.314 -11.91,-6.111c0,0 5.178,8.493 18.746,12.325c-3.107,3.936 -5.836,6.389 -5.836,6.389c-22.889,-0.725 -31.692,-17.743 -31.692,-17.743c0,-33.35 13.914,-56.381 13.914,-56.381c14.915,-11.186 29.104,-10.875 29.104,-10.875l1.45,1.657c-17.607,5.386 -25.789,13.153 -25.789,13.153c10.771,-5.903 21.336,-8.803 31.175,-9.942c3.288,-0.366 6.509,-0.52 9.632,-0.518c3.123,-0.002 6.344,0.152 9.632,0.518c9.839,1.139 20.403,4.039 31.175,9.942c0,0 -8.182,-7.767 -25.789,-13.153l1.45,-1.657c0,0 14.189,-0.311 29.103,10.875c0,0 14.914,27.031 14.914,60.381c0,0 -8.803,15.018 -31.692,15.743z"/>
  <path id="svg_3" d="m60.58,71.22c-4.766,-0.889 -9.457,1.973 -11.886,5.995c-2.851,4.719 -2.572,10.983 0.736,15.396c2.911,3.884 7.812,5.63 12.441,4.152c5.78,-1.846 8.548,-8.144 8.601,-13.989c0.049,-5.505 -4.394,-10.528 -9.892,-11.554z"/>
  <path id="svg_4" d="m144.847,102.542c-0.787,-8.75 -2.203,-17.673 -4.445,-26.173c-2.345,-8.891 -3.927,-17.95 -7.489,-26.481c-1.354,-3.242 -2.619,-8.087 -5.622,-10.17c-2.97,-2.061 -5.995,-3.547 -9.332,-4.979c-5.65,-2.424 -10.893,-4.705 -17.059,-5.493c-1.471,-0.141 -4.561,-0.958 -5.784,0.317c-0.804,0.839 -1.12,2.381 -1.66,3.403c-0.614,1.164 -1.308,2.502 0.035,3.506c-8.654,-1.513 -17.303,-1.706 -26.027,-0.766c0.111,-0.007 0.221,-0.014 0.332,-0.022c-0.766,0.044 -1.499,0.174 -2.257,0.259c1.302,-1.51 -0.101,-5.027 -1.395,-6.39c-0.873,-1.599 -4.863,-0.291 -6.174,-0.02c-4.775,0.986 -9.6,1.918 -14.175,3.628c-4.351,1.628 -11.672,3.538 -14.268,7.675c-3.311,7.834 -5.829,16.067 -8.235,24.216c-1.954,6.523 -3.116,13.331 -4.548,19.989c-0.717,3.337 -1.379,6.682 -1.806,10.07c-0.267,2.12 -0.46,4.238 -0.567,6.372c-0.092,1.833 -0.503,4.223 -0.007,6.015c0.784,2.83 4.414,5.717 6.515,7.515c2.863,2.45 5.96,4.247 9.463,5.63c4.397,1.615 8.733,3.412 13.404,4.076c1.904,0.271 3.812,0.464 5.735,0.515c1.736,-0.291 2.414,-1.704 3.452,-3.033c1.324,-1.694 2.623,-3.427 4.067,-5.023c0.849,-0.938 2.232,-1.913 2.106,-3.367c6.922,2.336 13.467,2.627 20.785,2.484c6.598,-0.129 13.093,-0.661 19.505,-2.337c-0.331,1.984 1.845,3.775 2.988,5.174c1.191,1.458 2.459,2.854 3.719,4.253c0.7,0.777 1.483,1.988 2.583,2.255c2.369,0.577 5.94,-0.949 8.235,-1.484c2.186,-0.51 4.348,-1.087 6.496,-1.739c6.205,-1.882 12.53,-4.826 17.415,-9.197c1.542,-1.38 3.941,-3.581 4.391,-5.747c0.316,-1.507 -0.229,-3.421 -0.376,-4.931zm-5.845,4.787c-4.619,5.374 -10.441,9.107 -17.054,11.594c-3.356,1.262 -12.107,3.064 -12.107,3.064c-1.35,-1.698 -3.716,-4.877 -4.974,-6.643c5.376,-1.634 10.712,-4.817 14.713,-8.793c1.057,-1.05 3.552,-3.149 3.999,-4.716c0.293,-1.028 -0.318,-2.135 -1.348,-2.429c-1.593,-0.455 -3.099,1.413 -4.254,2.222c-7.972,5.582 -18.678,8.146 -28.195,9.135c-8.287,0.862 -17.081,1.512 -25.266,-0.204c-7.841,-1.644 -13.356,-3.805 -19.509,-7.064c-3.269,-1.731 -4.985,-3.407 -5.748,-3.789c-0.995,-0.498 -2.131,-0.596 -2.818,0.498c-0.874,1.393 0.631,3.163 1.404,4.23c1.915,2.64 4.833,4.73 7.496,6.636c2.567,1.838 5.414,2.957 8.373,4.059c-1.211,1.543 -4.707,6.357 -4.707,6.357c-2.115,-0.248 -5.394,-1.215 -7.471,-1.672c-4.44,-0.978 -8.7,-2.484 -12.606,-4.838c-2.489,-1.501 -4.822,-3.305 -6.895,-5.342c-0.915,-0.899 -1.785,-1.853 -2.564,-2.873c-0.8,-1.048 -0.452,-2.758 -0.396,-4.046c0.21,-7.228 1.569,-14.276 3.018,-21.342c1.394,-6.793 2.078,-13.583 4.365,-20.178c1.131,-3.261 2.381,-6.473 3.749,-9.642c0.994,-2.303 2.201,-6.829 4.385,-8.191c4.486,-2.797 8.811,-5.167 13.696,-7.137c1.81,-0.73 3.659,-1.462 5.536,-1.995c1.576,-0.448 6.1,-2.039 7.934,-2.039l0.372,1.329c-14.324,3.716 -26.775,12.087 -27.526,14.019c-0.595,1.53 0.666,2.567 2.036,2.052c1.586,-0.596 4.771,-1.894 5.801,-2.364c15.398,-5.616 31.061,-8.631 47.385,-6.344c9.881,1.384 21.433,3.269 30.516,7.853c2.004,1.011 3.142,-0.869 2.274,-1.926c-1.774,-2.158 -6.42,-4.364 -9.357,-5.991c-3.131,-1.734 -13.502,-5.434 -16.583,-6.5c0.225,-0.621 1,-2.083 1,-2.083c5.266,0.497 14.254,3.937 19.083,6.083c2.227,0.99 6.499,3.692 8.141,5.519c2.565,4.999 4.769,10.212 6.468,15.569c1.871,5.901 3,12.004 4.969,17.878c1.434,4.279 2.48,8.594 3.01,13.078c0.397,3.068 0.576,6.167 0.687,9.257c0.089,2.567 0.69,5.69 -1.032,7.709c-0.475,0.552 0.345,-0.404 0,0z"/>
  <path id="svg_5" d="m110.166,82.76c-0.886,-6.306 -6.117,-11.504 -12.652,-11.411c-7.399,0.105 -12.461,7.039 -11.781,14.148c0.594,6.211 5.695,11.954 12.226,11.841c3.574,-0.062 6.891,-1.261 9.27,-4.023c2.467,-2.865 3.459,-6.845 2.937,-10.555c-0.313,-2.23 0.279,1.987 0,0z"/>
  <path id="svg_6" d="m156.56,35.659c-0.179,-11.387 -3.121,-22.627 -12.839,-29.577c-9.682,-6.924 -23.395,-5.569 -34.693,-5.47c-9.054,0.078 -18.083,0.502 -27.128,0.833c-17.521,0.642 -34.86,0.249 -52.387,0.289c-10.497,0.024 -20.507,6.424 -25.073,15.77c-3.49,7.141 -2.624,15.103 -2.289,22.806c1.065,24.443 -1.668,48.864 -0.78,73.272c0.398,10.934 -0.033,22.616 7.743,31.278c5.637,6.279 13.422,8.939 21.603,9.325c11.706,0.552 23.418,-0.044 35.125,0.329c9.449,0.301 18.76,-0.385 28.2,-0.355c10.784,0.034 21.526,-0.396 32.309,-0.59c11.398,-0.206 21.399,-5.167 26.927,-15.524c4.552,-8.529 3.455,-19.637 3.88,-28.945c0.558,-12.271 -0.407,-61.303 -0.598,-73.441zm-5.31,63.091c-0.327,9.995 -0.087,20.331 -1.04,30.289c-0.949,9.91 -10.859,18.876 -20.542,19.394c-10.802,0.578 -21.628,0.592 -32.414,-0.216c-9.621,-0.72 -19.108,0.366 -28.729,0.483c-11.986,0.146 -23.98,0.09 -35.966,-0.04c-9.324,-0.101 -18.592,-2.348 -23.24,-11.413c-2.381,-4.646 -2.464,-9.589 -2.603,-14.679c-0.175,-6.41 -0.3,-12.81 -0.249,-19.223c0.1,-12.477 -0.017,-24.952 0.162,-37.428c0.172,-11.958 1.488,-23.805 2.144,-35.731c0.512,-9.3 4.853,-17.116 13.765,-20.842c4.629,-1.936 9.8,-1.82 14.734,-1.872c6.889,-0.072 13.782,-0.232 20.671,-0.095c9.817,0.195 19.629,0.542 29.446,0.72c11.914,0.217 23.821,-0.527 35.742,-0.418c5.745,0.052 11.443,0.148 16.474,3.267c4.898,3.036 8.626,8.156 10.026,13.745c1.361,5.434 1.04,11.54 1.674,17.117c0.713,6.269 1.046,12.521 1.035,18.83c0.036,12.704 -0.675,25.418 -1.09,38.112z"/>
 </g>
</svg>